<?xml version="1.0" encoding="utf-8"?>
<!-- Generator: Adobe Illustrator 27.0.0, SVG Export Plug-In . SVG Version: 6.00 Build 0)  -->
<svg version="1.1" id="Camada_1" xmlns="http://www.w3.org/2000/svg" xmlns:xlink="http://www.w3.org/1999/xlink" x="0px" y="0px"
	 viewBox="0 0 6.16 5.95" style="enable-background:new 0 0 6.16 5.95;" xml:space="preserve">
<style type="text/css">
	.st0{fill:none;stroke:#FFFFFF;stroke-width:0.1;stroke-miterlimit:10;}
</style>
<g>
	<path class="st0" d="M4.63,3.44c0,0.22-0.18,0.41-0.41,0.41H1.94c-0.22,0-0.41-0.18-0.41-0.41c0-0.22,0.18-0.41,0.41-0.41
		c0-0.22,0.18-0.41,0.41-0.41c0.03,0,0.05,0,0.08,0.01C2.49,2.33,2.76,2.1,3.08,2.1"/>
	<path class="st0" d="M4.85,5.38H1.31c-0.52,0-0.95-0.42-0.95-0.95V1.52c0-0.52,0.42-0.95,0.95-0.95h3.54C5.37,0.57,5.8,1,5.8,1.52
		v2.91C5.8,4.95,5.37,5.38,4.85,5.38z"/>
	<g>
		<path class="st0" d="M4.58,3.18H3.57c-0.12,0-0.22-0.1-0.22-0.22V2.05h1.24v0.61"/>
		<rect x="3.35" y="2.05" class="st0" width="1.24" height="0.81"/>
	</g>
</g>
</svg>
