<?xml version="1.0" encoding="utf-8"?>
<!-- Generator: Adobe Illustrator 27.0.0, SVG Export Plug-In . SVG Version: 6.00 Build 0)  -->
<svg version="1.1" id="Camada_1" xmlns="http://www.w3.org/2000/svg" xmlns:xlink="http://www.w3.org/1999/xlink" x="0px" y="0px"
	 viewBox="0 0 32 32" style="enable-background:new 0 0 32 32;" xml:space="preserve">
<style type="text/css">
	.st0{fill:#FFFFFF;}
</style>
<path class="st0" d="M26.7,3.3C26.5,3.1,26.3,3,26,3H9C7.9,3,6.9,3.4,6.2,4.2S5,5.9,5,7v21c0,0.3,0.1,0.5,0.3,0.7
	C5.5,28.9,5.7,29,6,29h18c0.3,0,0.5-0.1,0.7-0.3c0.2-0.2,0.3-0.4,0.3-0.7s-0.1-0.5-0.3-0.7C24.5,27.1,24.3,27,24,27H7
	c0-0.5,0.2-1,0.6-1.4C8,25.2,8.5,25,9,25h17c0.3,0,0.5-0.1,0.7-0.3c0.2-0.2,0.3-0.4,0.3-0.7V4C27,3.7,26.9,3.5,26.7,3.3z M25,15
	l-3.2-2.4c-0.1-0.1-0.2-0.1-0.3-0.1s-0.2,0-0.3,0.1L18,15V5h7V15z"/>
</svg>
