<?xml version="1.0" encoding="utf-8"?>
<!-- Generator: Adobe Illustrator 27.0.0, SVG Export Plug-In . SVG Version: 6.00 Build 0)  -->
<svg version="1.1" id="Camada_1" xmlns="http://www.w3.org/2000/svg" xmlns:xlink="http://www.w3.org/1999/xlink" x="0px" y="0px"
	 viewBox="0 0 6.16 5.95" style="enable-background:new 0 0 6.16 5.95;" xml:space="preserve">
<style type="text/css">
	.st0{fill:none;stroke:#FFFFFF;stroke-width:0.1;stroke-miterlimit:10;}
</style>
<g>
	<path class="st0" d="M4.7,5.38H1.46c-0.59,0-1.07-0.48-1.07-1.07V1.65c0-0.59,0.48-1.07,1.07-1.07H4.7c0.59,0,1.07,0.48,1.07,1.07
		V4.3C5.77,4.89,5.29,5.38,4.7,5.38z"/>
	<g>
		<g>
			<circle class="st0" cx="2.05" cy="2.93" r="0.37"/>
			<path class="st0" d="M1.39,4.2V3.68c0-0.21,0.17-0.38,0.38-0.38h0.55c0.21,0,0.38,0.17,0.38,0.38v0.53"/>
		</g>
		<g>
			<circle class="st0" cx="4.11" cy="2.93" r="0.37"/>
			<path class="st0" d="M3.45,4.2V3.68c0-0.21,0.17-0.38,0.38-0.38h0.55c0.21,0,0.38,0.17,0.38,0.38v0.53"/>
		</g>
		<g>
			<circle class="st0" cx="3.08" cy="2.1" r="0.37"/>
			<path class="st0" d="M2.42,2.93V2.85c0-0.21,0.17-0.38,0.38-0.38h0.55c0.21,0,0.38,0.17,0.38,0.38v0.08"/>
		</g>
	</g>
</g>
</svg>
