<?xml version="1.0" encoding="utf-8"?>
<!-- Generator: Adobe Illustrator 27.0.0, SVG Export Plug-In . SVG Version: 6.00 Build 0)  -->
<svg version="1.1" id="Camada_1" xmlns="http://www.w3.org/2000/svg" xmlns:xlink="http://www.w3.org/1999/xlink" x="0px" y="0px"
	 viewBox="0 0 31 31" style="enable-background:new 0 0 31 31;" xml:space="preserve">
<style type="text/css">
	.st0{fill-rule:evenodd;clip-rule:evenodd;}
</style>
<path class="st0" d="M26.5,24.5c0,2.1-1.7,3.8-3.8,3.8H10.2c-2.1,0-3.8-1.7-3.8-3.8v-3.8c0-0.7,0.6-1.3,1.3-1.3S9,20,9,20.7v3.8
	c0,0.7,0.6,1.3,1.3,1.3h12.5c0.7,0,1.3-0.6,1.3-1.3V7c0-0.7-0.6-1.3-1.3-1.3H10.2C9.5,5.7,8.9,6.3,8.9,7v3.8c0,0.7-0.6,1.3-1.3,1.3
	s-1.3-0.6-1.3-1.3V7c0-2.1,1.7-3.8,3.8-3.8h12.5c2.1,0,3.8,1.7,3.8,3.8v17.5H26.5z M16.1,9.9l5,5c0.5,0.5,0.5,1.3,0,1.8l-5,5
	c-0.5,0.5-1.3,0.5-1.8,0s-0.5-1.3,0-1.8l2.9-2.9H6.4c-0.7,0-1.3-0.6-1.3-1.3s0.6-1.3,1.3-1.3h10.8l-2.9-2.9c-0.5-0.5-0.5-1.3,0-1.8
	C14.8,9.4,15.6,9.4,16.1,9.9z"/>
</svg>
