<?xml version="1.0" encoding="utf-8"?>
<!-- Generator: Adobe Illustrator 27.0.0, SVG Export Plug-In . SVG Version: 6.00 Build 0)  -->
<svg version="1.1" id="Camada_1" xmlns="http://www.w3.org/2000/svg" xmlns:xlink="http://www.w3.org/1999/xlink" x="0px" y="0px"
	 viewBox="0 0 6.2 5.9" style="enable-background:new 0 0 6.2 5.9;" xml:space="preserve">
<style type="text/css">
	.st0{fill:none;stroke:#FFFFFF;stroke-width:0.1;stroke-miterlimit:10;}
</style>
<g>
	<path class="st0" d="M4.8,5.4H1.3c-0.5,0-1-0.4-1-0.9V1.5c0-0.5,0.4-1,1-1h3.5c0.5,0,1,0.4,1,1v2.9C5.8,4.9,5.4,5.4,4.8,5.4z"/>
	<g>
		<g>
			<path class="st0" d="M3.6,3.7h0.6"/>
			<path class="st0" d="M3.6,3.2h0.6"/>
			<path class="st0" d="M3.6,2.7h0.6"/>
			<path class="st0" d="M3.6,2.2h0.6"/>
		</g>
		<g>
			<path class="st0" d="M2,3.7h0.6"/>
			<path class="st0" d="M2,3.2h0.6"/>
			<path class="st0" d="M2,2.7h0.6"/>
			<path class="st0" d="M2,2.2h0.6"/>
		</g>
		<path class="st0" d="M4.6,1.8v2.3c0,0.1,0,0.1-0.1,0.1h-1c-0.1,0-0.3,0-0.4,0.1C2.9,4.2,2.8,4.2,2.7,4.2h-1c-0.1,0-0.1,0-0.1-0.1
			V1.8c0-0.1,0-0.1,0.1-0.1h0.6c0.3,0,0.5,0.1,0.8,0.2c0.2-0.2,0.5-0.2,0.8-0.2h0.6C4.5,1.7,4.6,1.7,4.6,1.8z"/>
		<line class="st0" x1="3.1" y1="1.9" x2="3.1" y2="4.3"/>
	</g>
</g>
</svg>
