<?xml version="1.0" encoding="utf-8"?>
<!-- Generator: Adobe Illustrator 27.0.0, SVG Export Plug-In . SVG Version: 6.00 Build 0)  -->
<svg version="1.1" id="Camada_1" xmlns="http://www.w3.org/2000/svg" xmlns:xlink="http://www.w3.org/1999/xlink" x="0px" y="0px"
	 viewBox="0 0 6.16 5.95" style="enable-background:new 0 0 6.16 5.95;" xml:space="preserve">
<style type="text/css">
	.st0{fill:none;stroke:#FFFFFF;stroke-width:0.1;stroke-miterlimit:10;}
</style>
<g>
	<path class="st0" d="M4.89,5.36H1.27c-0.49,0-0.89-0.4-0.89-0.89V1.48c0-0.49,0.4-0.89,0.89-0.89h3.61c0.49,0,0.89,0.4,0.89,0.89
		v2.99C5.78,4.96,5.38,5.36,4.89,5.36z"/>
	<g>
		<path class="st0" d="M4.51,2.56L2.95,2.94c-0.02,0-0.04,0-0.06-0.01L1.63,2.28C1.56,2.24,1.57,2.14,1.64,2.12L3.2,1.68
			c0.02-0.01,0.05,0,0.07,0.01L4.53,2.4C4.6,2.44,4.59,2.54,4.51,2.56z"/>
		<path class="st0" d="M4.32,2.6v0.85c0,0.3-0.21,0.57-0.5,0.64L3.2,4.25C3.04,4.29,2.88,4.27,2.74,4.19L2.19,3.91
			C1.97,3.79,1.84,3.57,1.84,3.32V2.38"/>
	</g>
</g>
</svg>
