<svg width="32" height="32" viewBox="0 0 32 32" fill="none" xmlns="http://www.w3.org/2000/svg">
<path d="M16 9.5C17.0878 9.5 18.1512 9.82257 19.0556 10.4269C19.9601 11.0313 20.6651 11.8903 21.0813 12.8952C21.4976 13.9002 21.6065 15.0061 21.3943 16.073C21.1821 17.1399 20.6583 18.1199 19.8891 18.8891C19.1199 19.6583 18.1399 20.1821 17.073 20.3943C16.0061 20.6065 14.9002 20.4976 13.8952 20.0813C12.8902 19.6651 12.0313 18.9601 11.4269 18.0556C10.8226 17.1512 10.5 16.0878 10.5 15C10.5 14.2777 10.6423 13.5625 10.9187 12.8952C11.1951 12.228 11.6002 11.6216 12.1109 11.1109C12.6216 10.6002 13.2279 10.1951 13.8952 9.91866C14.5625 9.64226 15.2777 9.5 16 9.5ZM27.695 13.1195C27.4331 13.161 27.1984 13.3049 27.0425 13.5195C26.8866 13.7341 26.8224 14.0018 26.8639 14.2637C26.9546 14.838 27.0001 15.4186 27 16C27.0021 18.6927 26.0124 21.2919 24.2198 23.3013C23.417 22.1382 22.376 21.1593 21.1659 20.4294C19.7744 21.7584 17.9242 22.5 16 22.5C14.0758 22.5 12.2256 21.7584 10.8341 20.4294C9.62399 21.1593 8.58298 22.1382 7.78021 23.3013C6.37083 21.7172 5.44961 19.7593 5.12755 17.6636C4.8055 15.5678 5.09636 13.4237 5.96508 11.4895C6.83379 9.55529 8.24331 7.91358 10.0238 6.76217C11.8042 5.61076 13.8797 4.99879 16 5C16.5814 4.99995 17.162 5.04545 17.7363 5.13611C17.866 5.15668 17.9985 5.1515 18.1262 5.12086C18.2539 5.09022 18.3744 5.03472 18.4806 4.95754C18.5869 4.88036 18.6769 4.783 18.7455 4.67103C18.8142 4.55906 18.8601 4.43467 18.8806 4.30495C18.9012 4.17524 18.896 4.04275 18.8653 3.91505C18.8346 3.78735 18.7791 3.66693 18.7019 3.56068C18.6248 3.45443 18.5274 3.36443 18.4154 3.29581C18.3034 3.2272 18.179 3.18131 18.0493 3.16077C16.1924 2.86612 14.2937 2.97741 12.484 3.487C10.6743 3.99659 8.99647 4.89236 7.56615 6.11262C6.13584 7.33288 4.98699 8.84865 4.19872 10.5555C3.41045 12.2624 3.00149 14.1199 3 16C2.99928 17.8038 3.37488 19.588 4.10279 21.2384C4.8307 22.8888 5.89491 24.3693 7.22742 25.5851C7.27693 25.6407 7.33254 25.6906 7.3932 25.7338C9.76647 27.8381 12.8285 29.0001 16.0003 29C19.1722 28.9999 22.2341 27.8378 24.6073 25.7334C24.6675 25.6905 24.7227 25.6409 24.7719 25.5858C26.1046 24.3699 27.169 22.8894 27.897 21.2389C28.6251 19.5883 29.0007 17.804 29 16C29 15.3137 28.9463 14.6285 28.8392 13.9507C28.8187 13.821 28.7728 13.6966 28.7042 13.5846C28.6356 13.4726 28.5456 13.3752 28.4393 13.298C28.3331 13.2208 28.2127 13.1653 28.0849 13.1347C27.9572 13.1041 27.8247 13.0989 27.695 13.1195Z" fill="white"/>
<path d="M25 6H23C22.7348 6 22.4804 5.89464 22.2929 5.70711C22.1054 5.51957 22 5.26522 22 5C22 4.73478 22.1054 4.48043 22.2929 4.29289C22.4804 4.10536 22.7348 4 23 4H25V2C25 1.73478 25.1054 1.48043 25.2929 1.29289C25.4804 1.10536 25.7348 1 26 1C26.2652 1 26.5196 1.10536 26.7071 1.29289C26.8946 1.48043 27 1.73478 27 2V4H29C29.2652 4 29.5196 4.10536 29.7071 4.29289C29.8946 4.48043 30 4.73478 30 5C30 5.26522 29.8946 5.51957 29.7071 5.70711C29.5196 5.89464 29.2652 6 29 6H27V8C27 8.26522 26.8946 8.51957 26.7071 8.70711C26.5196 8.89464 26.2652 9 26 9C25.7348 9 25.4804 8.89464 25.2929 8.70711C25.1054 8.51957 25 8.26522 25 8V6Z" fill="white"/>
</svg>
