<?xml version="1.0" encoding="utf-8"?>
<!-- Generator: Adobe Illustrator 27.0.0, SVG Export Plug-In . SVG Version: 6.00 Build 0)  -->
<svg version="1.1" id="Camada_1" xmlns="http://www.w3.org/2000/svg" xmlns:xlink="http://www.w3.org/1999/xlink" x="0px" y="0px"
	 viewBox="0 0 19.85 23.49" style="enable-background:new 0 0 19.85 23.49;" xml:space="preserve">
<style type="text/css">
	.st0{fill:#1A1A1A;}
</style>
<g>
	<path class="st0" d="M1.41,20.33l1.22-4.44c-0.72-1.29-1.14-2.72-1.14-4.22c0-4.72,3.79-8.51,8.44-8.51c2.29,0,4.44,0.86,6.01,2.5
		c1.57,1.57,2.5,3.72,2.5,6.01c0,4.72-3.79,8.51-8.51,8.51c-1.43,0-2.86-0.36-4.08-1C5.92,19.11,1.41,20.33,1.41,20.33z M6.13,17.61
		c1.22,0.72,2.36,1.14,3.86,1.14c3.86,0,7.08-3.15,7.08-7.08S13.93,4.59,10,4.59s-7.08,3.15-7.08,7.08c0,1.57,0.5,2.79,1.22,4.01
		l-0.72,2.58C3.41,18.33,6.13,17.61,6.13,17.61z M14.22,13.68c-0.07-0.07-0.21-0.14-0.43-0.21c-0.21-0.07-1.29-0.64-1.43-0.72
		c-0.21-0.07-0.36-0.07-0.5,0.07c-0.14,0.21-0.57,0.72-0.64,0.86c-0.07,0.14-0.21,0.14-0.43,0.07c-0.21-0.07-0.93-0.36-1.72-1.07
		c-0.64-0.57-1.07-1.29-1.22-1.5s0-0.36,0.07-0.43s0.21-0.21,0.29-0.36c0.21-0.07,0.21-0.21,0.29-0.36c0.07-0.14,0.07-0.29,0-0.36
		S7.99,8.53,7.85,8.1c-0.21-0.43-0.36-0.36-0.5-0.36H6.92c-0.14,0-0.36,0.07-0.57,0.29C6.13,8.24,5.63,8.74,5.63,9.81
		s0.79,2.07,0.86,2.22c0.07,0.14,1.5,2.29,3.65,3.22c0.5,0.21,0.93,0.36,1.22,0.43c0.5,0.14,1,0.14,1.36,0.07
		c0.43-0.07,1.29-0.5,1.43-1C14.29,14.18,14.29,13.82,14.22,13.68z"/>
</g>
</svg>
